<svg width="21" height="21" viewBox="0 0 21 21" fill="none" xmlns="http://www.w3.org/2000/svg">
<path fill-rule="evenodd" clip-rule="evenodd" d="M17.9246 5.19668C18.5104 4.61089 18.5104 3.66114 17.9246 3.07536C17.3388 2.48957 16.3891 2.48957 15.8033 3.07536L10.5 8.37866L5.19671 3.07537C4.61092 2.48958 3.66117 2.48958 3.07539 3.07537C2.4896 3.66116 2.4896 4.6109 3.07539 5.19669L8.37868 10.5L3.07539 15.8033C2.4896 16.3891 2.4896 17.3388 3.07539 17.9246C3.66117 18.5104 4.61092 18.5104 5.19671 17.9246L10.5 12.6213L15.8033 17.9246C16.3891 18.5104 17.3388 18.5104 17.9246 17.9246C18.5104 17.3388 18.5104 16.3891 17.9246 15.8033L12.6213 10.5L17.9246 5.19668Z" fill="white"/>
</svg>
