<svg width="21" height="21" viewBox="0 0 21 21" fill="none" xmlns="http://www.w3.org/2000/svg">
<path fill-rule="evenodd" clip-rule="evenodd" d="M0 3.5C0 2.67157 0.671573 2 1.5 2H19.5C20.3284 2 21 2.67157 21 3.5C21 4.32843 20.3284 5 19.5 5H1.5C0.671573 5 0 4.32843 0 3.5ZM0 10.5C0 9.67157 0.671573 9 1.5 9H19.5C20.3284 9 21 9.67157 21 10.5C21 11.3284 20.3284 12 19.5 12H1.5C0.671573 12 0 11.3284 0 10.5ZM1.5 16C0.671573 16 0 16.6716 0 17.5C0 18.3284 0.671573 19 1.5 19H19.5C20.3284 19 21 18.3284 21 17.5C21 16.6716 20.3284 16 19.5 16H1.5Z" fill="white"/>
</svg>
