<svg width="21" height="18" viewBox="0 0 21 18" fill="none" xmlns="http://www.w3.org/2000/svg">
<path d="M21 2.5C20.23 2.85 19.4 3.08 18.54 3.19C19.42 2.66 20.1 1.82 20.42 0.81C19.59 1.31 18.67 1.66 17.7 1.86C16.91 1 15.8 0.5 14.54 0.5C12.19 0.5 10.27 2.42 10.27 4.79C10.27 5.13 10.31 5.46 10.38 5.77C6.81996 5.59 3.64996 3.88 1.53996 1.29C1.16996 1.92 0.959956 2.66 0.959956 3.44C0.959956 4.93 1.70996 6.25 2.86996 7C2.15996 7 1.49996 6.8 0.919956 6.5C0.919956 6.5 0.919956 6.5 0.919956 6.53C0.919956 8.61 2.39996 10.35 4.35996 10.74C3.99996 10.84 3.61996 10.89 3.22996 10.89C2.95996 10.89 2.68996 10.86 2.42996 10.81C2.96996 12.5 4.53996 13.76 6.42996 13.79C4.96996 14.95 3.11996 15.63 1.09996 15.63C0.759956 15.63 0.419956 15.61 0.0799561 15.57C1.97996 16.79 4.23996 17.5 6.65996 17.5C14.54 17.5 18.87 10.96 18.87 5.29C18.87 5.1 18.87 4.92 18.86 4.73C19.7 4.13 20.42 3.37 21 2.5Z" fill="white"/>
</svg>
