<svg width="21" height="20" viewBox="0 0 21 20" fill="none" xmlns="http://www.w3.org/2000/svg">
<path d="M10.08 0.039978C4.57996 0.039978 0.0799561 4.52998 0.0799561 10.06C0.0799561 15.06 3.73996 19.21 8.51996 19.96V12.96H5.97996V10.06H8.51996V7.84998C8.51996 5.33998 10.01 3.95998 12.3 3.95998C13.39 3.95998 14.53 4.14998 14.53 4.14998V6.61998H13.27C12.03 6.61998 11.64 7.38998 11.64 8.17998V10.06H14.42L13.97 12.96H11.64V19.96C13.9964 19.5878 16.1422 18.3855 17.6899 16.57C19.2376 14.7546 20.0853 12.4456 20.08 10.06C20.08 4.52998 15.58 0.039978 10.08 0.039978Z" fill="white"/>
</svg>
